<?xml version="1.0" encoding="UTF-8"?>
<svg width="170px" height="30px" viewBox="0 0 170 30" version="1.1" xmlns="http://www.w3.org/2000/svg" xmlns:xlink="http://www.w3.org/1999/xlink">
    <!-- Generator: Sketch 49.1 (51147) - http://www.bohemiancoding.com/sketch -->
    <title>logo_cop__b_slice</title>
    <desc>Created with Sketch.</desc>
    <defs>
        <linearGradient x1="0%" y1="0%" x2="100%" y2="100%" id="linearGradient-1">
            <stop stop-color="#4DB4FF" offset="0%"></stop>
            <stop stop-color="#188FFF" offset="100%"></stop>
        </linearGradient>
    </defs>
    <g id="icns" stroke="none" stroke-width="1" fill="none" fill-rule="evenodd">
        <g id="Artboard" transform="translate(-530.000000, -457.000000)">
            <g id="logo_COP--b" transform="translate(530.000000, 457.000000)">
                <path d="M22.3229757,26.0246914 L19.9148936,30 L16.8510638,30 L24.1276596,17.9876543 L27.1914894,17.9876543 L23.7139796,23.7283951 L28.344103,23.7283951 C31.3032583,23.7283951 33.7021277,21.3295257 33.7021277,18.3703704 C33.7021277,15.411215 31.3032583,13.0123457 28.344103,13.0123457 L27.9574468,13.0123457 L27.1914894,13.0123457 L28.5045593,10.7160494 L28.7234043,10.7160494 C28.7234043,10.719102 28.723403,10.7221544 28.7234004,10.7252065 C32.7753066,10.9221066 36,14.2696547 36,18.3703704 C36,22.5977351 32.5730438,26.0246914 28.345679,26.0246914 L22.3229757,26.0246914 Z M23.9088146,10.7160494 L26.0425532,10.7160494 L16.8510638,26.0246914 L15.1550152,26.0246914 L10.0273556,26.0246914 L7.89361702,26.0246914 L17.0851064,10.7160494 L18.781155,10.7160494 L23.9088146,10.7160494 Z M21.6,13.0123457 L18.7702128,13.0123457 L12.3361702,23.7283951 L15.1659574,23.7283951 L21.6,13.0123457 Z M14.550152,10.7160494 L13.1276596,13.0123457 L7.65957447,13.0123457 L7.65589703,13.0123457 C4.69674171,13.0123457 2.29787234,15.411215 2.29787234,18.3703704 C2.29787234,20.9535869 4.12594181,23.1098349 6.5589793,23.616013 L5.29615974,25.6545531 C2.22271299,24.6602875 4.16934649e-16,21.7749001 0,18.3703704 C-5.0219283e-16,14.2696547 3.22469339,10.9221066 7.27659958,10.7252065 C7.27659702,10.7221544 7.27659574,10.719102 7.27659574,10.7160494 C7.27659574,4.79773873 12.0776274,0 18,0 C22.8577337,0 26.9610467,3.22784408 28.2793348,7.65432099 L25.4383842,7.65432099 C24.2335021,4.73428394 21.356933,2.67901235 18,2.67901235 C13.5582205,2.67901235 9.95744681,6.27731639 9.95744681,10.7160494 L14.550152,10.7160494 Z" id="Combined-Shape-Copy" fill="url(#linearGradient-1)"></path>
                <path d="M52.172,10.896 C52.0786662,9.94399524 51.7333363,9.234669 51.136,8.768 C50.5386637,8.301331 49.6426726,8.068 48.448,8.068 C46.2453223,8.068 45.144,8.82399244 45.144,10.336 C45.144,10.877336 45.3726644,11.3299982 45.83,11.694 C46.2873356,12.0580018 47.019995,12.3613321 48.028,12.604 C49.2226726,12.8840014 50.2586623,13.1453321 51.136,13.388 C52.0133377,13.6306679 52.8159964,13.9106651 53.544,14.228 C53.9546687,14.3960008 54.3419982,14.6059987 54.706,14.858 C55.0700018,15.1100013 55.3779987,15.4226648 55.63,15.796 C55.8820013,16.1693352 56.0826659,16.6173307 56.232,17.14 C56.3813341,17.6626693 56.456,18.2973296 56.456,19.044 C56.456,19.9400045 56.2693352,20.7333299 55.896,21.424 C55.5226648,22.1146701 55.0186698,22.6979976 54.384,23.174 C53.7493302,23.6500024 53.002671,24.0139987 52.144,24.266 C51.285329,24.5180013 50.3800048,24.644 49.428,24.644 C46.7213198,24.644 44.6866735,24.1213386 43.324,23.076 C41.9613265,22.0306614 41.242667,20.4813436 41.168,18.428 L44.92,18.428 C44.9386668,19.3800048 45.3259962,20.1313306 46.082,20.682 C46.8380038,21.2326694 47.7853276,21.508 48.924,21.508 C50.1560062,21.508 51.0893302,21.2840022 51.724,20.836 C52.3586698,20.3879978 52.676,19.7813372 52.676,19.016 C52.676,18.7173318 52.638667,18.4420013 52.564,18.19 C52.489333,17.9379987 52.3446677,17.7093344 52.13,17.504 C51.9153323,17.2986656 51.6213352,17.1166675 51.248,16.958 C50.8746648,16.7993325 50.3893363,16.6546673 49.792,16.524 C48.3733262,16.2253318 47.1460052,15.9220015 46.11,15.614 C45.0739948,15.3059985 44.2200034,14.9233356 43.548,14.466 C42.8759966,14.0086644 42.3813349,13.4533366 42.064,12.8 C41.7466651,12.1466634 41.588,11.316005 41.588,10.308 C41.588,9.54266284 41.7279986,8.82400336 42.008,8.152 C42.2880014,7.47999664 42.7173304,6.89666914 43.296,6.402 C43.8746696,5.90733086 44.5886624,5.51533478 45.438,5.226 C46.2873376,4.93666522 47.2906609,4.792 48.448,4.792 C49.5680056,4.792 50.5759955,4.93666522 51.472,5.226 C52.3680045,5.51533478 53.1379968,5.92599734 53.782,6.458 C54.4260032,6.99000266 54.9253316,7.63399622 55.28,8.39 C55.6346684,9.14600378 55.8306665,9.98132876 55.868,10.896 L52.172,10.896 Z M73.508,24 L73.508,15.656 C73.508,14.8159958 73.312002,14.1346693 72.92,13.612 C72.527998,13.0893307 72.0053366,12.828 71.352,12.828 C70.6799966,12.828 70.1246689,13.1079972 69.686,13.668 C69.2473311,14.2280028 69.028,14.9279958 69.028,15.768 L69.028,24 L65.388,24 L65.388,15.712 C65.388,15.1519972 65.350667,14.6946684 65.276,14.34 C65.201333,13.9853316 65.0753342,13.7053344 64.898,13.5 C64.7206658,13.2946656 64.4920014,13.1500004 64.212,13.066 C63.9319986,12.9819996 63.596002,12.94 63.204,12.94 C61.729326,12.94 60.992,13.835991 60.992,15.628 L60.992,24 L57.352,24 L57.352,10.224 L60.768,10.224 L60.768,12.24 C61.234669,11.3253288 61.7946634,10.7000017 62.448,10.364 C63.1013366,10.0279983 63.8853288,9.86 64.8,9.86 C65.266669,9.86 65.6819982,9.89733296 66.046,9.972 C66.4100018,10.046667 66.7366652,10.1726658 67.026,10.35 C67.3153348,10.5273342 67.5906654,10.7559986 67.852,11.036 C68.1133346,11.3160014 68.3746654,11.651998 68.636,12.044 C69.0093352,11.2786628 69.5039969,10.7233351 70.12,10.378 C70.7360031,10.0326649 71.4826623,9.86 72.36,9.86 C73.0506701,9.86 73.6853304,9.9766655 74.264,10.21 C74.8426696,10.4433345 75.3373313,10.7699979 75.748,11.19 C76.1586687,11.6100021 76.4806655,12.0999972 76.714,12.66 C76.9473345,13.2200028 77.064,13.8173302 77.064,14.452 L77.064,24 L73.508,24 Z M87.2,19.688 C88.0400042,19.688 88.7119975,19.2866707 89.216,18.484 C89.7200025,17.6813293 89.972,16.6546729 89.972,15.404 C89.972,14.6386628 89.8086683,14.0506687 89.482,13.64 C89.1553317,13.2293313 88.6746698,13.024 88.04,13.024 C87.2186626,13.024 86.5233362,13.3599966 85.954,14.032 C85.3846638,14.7040034 85.1,15.7866592 85.1,17.28 C85.1,18.0640039 85.2539985,18.6613313 85.562,19.072 C85.8700015,19.4826687 86.4159961,19.688 87.2,19.688 Z M95.88,24.42 C95.338664,24.886669 94.4240064,25.3206647 93.136,25.722 C91.8479936,26.1233353 90.1306774,26.324 87.984,26.324 C86.3786586,26.324 84.9693394,26.0860024 83.756,25.61 C82.5426606,25.1339976 81.5253374,24.4713376 80.704,23.622 C79.8826626,22.7726624 79.2620021,21.7553393 78.842,20.57 C78.4219979,19.3846607 78.212,18.092007 78.212,16.692 C78.212,15.217326 78.4359978,13.8546729 78.884,12.604 C79.3320022,11.3533271 79.9806624,10.2753379 80.83,9.37 C81.6793376,8.46466214 82.7153272,7.7553359 83.938,7.242 C85.1606728,6.7286641 86.5466589,6.472 88.096,6.472 C89.3280062,6.472 90.4946612,6.62133184 91.596,6.92 C92.6973388,7.21866816 93.6633292,7.6946634 94.494,8.348 C95.3246708,9.0013366 95.9826642,9.8413282 96.468,10.868 C96.9533358,11.8946718 97.196,13.1266595 97.196,14.564 C97.196,15.7773394 97.0466682,16.8459954 96.748,17.77 C96.4493318,18.6940046 96.066669,19.4686635 95.6,20.094 C95.133331,20.7193365 94.6106696,21.1906651 94.032,21.508 C93.4533304,21.8253349 92.8746696,21.984 92.296,21.984 C91.5119961,21.984 90.9146687,21.8393348 90.504,21.55 C90.0933313,21.2606652 89.8413338,20.9106687 89.748,20.5 C89.4493318,21.0040025 89.0433359,21.3633323 88.53,21.578 C88.0166641,21.7926677 87.4333366,21.9 86.78,21.9 C86.0519964,21.9 85.4313359,21.7693346 84.918,21.508 C84.4046641,21.2466654 83.9846683,20.9013355 83.658,20.472 C83.3313317,20.0426645 83.0933341,19.5526694 82.944,19.002 C82.7946659,18.4513306 82.72,17.8773363 82.72,17.28 C82.72,16.3839955 82.8413321,15.5486705 83.084,14.774 C83.3266679,13.9993295 83.6766644,13.3320028 84.134,12.772 C84.5913356,12.2119972 85.1419968,11.7686683 85.786,11.442 C86.4300032,11.1153317 87.1533293,10.952 87.956,10.952 C88.6093366,10.952 89.1786642,11.0966652 89.664,11.386 C90.1493358,11.6753348 90.4946656,12.1186637 90.7,12.716 L91.064,11.232 L93.248,11.232 L91.792,18.148 C91.6799994,18.6520025 91.624,18.9879992 91.624,19.156 C91.624,19.3426676 91.6939993,19.4779996 91.834,19.562 C91.9740007,19.6460004 92.1186659,19.688 92.268,19.688 C92.5853349,19.688 92.9119983,19.5853344 93.248,19.38 C93.5840017,19.1746656 93.8919986,18.8713353 94.172,18.47 C94.4520014,18.0686647 94.6806658,17.5646697 94.858,16.958 C95.0353342,16.3513303 95.124,15.6466707 95.124,14.844 C95.124,13.6866609 94.9606683,12.6973374 94.634,11.876 C94.3073317,11.0546626 93.8360031,10.3873359 93.22,9.874 C92.6039969,9.3606641 91.8620043,8.98266788 90.994,8.74 C90.1259957,8.49733212 89.1506721,8.376 88.068,8.376 C86.8173271,8.376 85.7113381,8.61399762 84.75,9.09 C83.7886619,9.56600238 82.9860032,10.1866628 82.342,10.952 C81.6979968,11.7173372 81.2080017,12.5899951 80.872,13.57 C80.5359983,14.5500049 80.368,15.543995 80.368,16.552 C80.368,19.0533458 81.0493265,20.9573268 82.412,22.264 C83.7746735,23.5706732 85.6879877,24.224 88.152,24.224 C89.7946749,24.224 91.2039941,24.0933346 92.38,23.832 C93.5560059,23.5706654 94.4333304,23.2253355 95.012,22.796 L95.88,24.42 Z M98.344,24 L98.344,10.224 L101.76,10.224 L101.76,11.876 C102.058668,11.409331 102.371332,11.0453346 102.698,10.784 C103.024668,10.5226654 103.360665,10.3220007 103.706,10.182 C104.051335,10.0419993 104.401332,9.95333352 104.756,9.916 C105.110668,9.87866648 105.474665,9.86 105.848,9.86 L106.324,9.86 L106.324,13.584 C105.987998,13.5279997 105.652002,13.5 105.316,13.5 C103.094656,13.5 101.984,14.6106556 101.984,16.832 L101.984,24 L98.344,24 Z M114.976,14.928 L118.364,14.928 L118.364,18.848 C118.364,19.5760036 118.256668,20.27133 118.042,20.934 C117.827332,21.59667 117.491336,22.1846641 117.034,22.698 C116.576664,23.2113359 115.998004,23.6173318 115.298,23.916 C114.597997,24.2146682 113.762672,24.364 112.792,24.364 C111.783995,24.364 110.925337,24.2146682 110.216,23.916 C109.506663,23.6173318 108.923336,23.2160025 108.466,22.712 C108.008664,22.2079975 107.677334,21.6200034 107.472,20.948 C107.266666,20.2759966 107.164,19.5666704 107.164,18.82 L107.164,6.5 L110.748,6.5 L110.748,10.224 L118.364,10.224 L118.364,12.8 L110.748,12.8 L110.748,18.456 C110.748,19.3333377 110.911332,20.0099976 111.238,20.486 C111.564668,20.9620024 112.10133,21.2 112.848,21.2 C113.576004,21.2 114.112665,20.966669 114.458,20.5 C114.803335,20.033331 114.976,19.370671 114.976,18.512 L114.976,14.928 Z M135.976,17.616 C135.770666,18.6800053 135.444002,19.641329 134.996,20.5 C134.547998,21.358671 133.983337,22.0959969 133.302,22.712 C132.620663,23.3280031 131.832004,23.8039983 130.936,24.14 C130.039996,24.4760017 129.050672,24.644 127.968,24.644 C126.754661,24.644 125.620672,24.4386687 124.566,24.028 C123.511328,23.6173313 122.601337,23.0013374 121.836,22.18 C121.070663,21.3586626 120.468669,20.346006 120.03,19.142 C119.591331,17.937994 119.372,16.5333414 119.372,14.928 C119.372,13.3599922 119.572665,11.9460063 119.974,10.686 C120.375335,9.4259937 120.94933,8.36200434 121.696,7.494 C122.44267,6.62599566 123.352661,5.958669 124.426,5.492 C125.499339,5.025331 126.69866,4.792 128.024,4.792 C129.181339,4.792 130.231329,4.96466494 131.174,5.31 C132.116671,5.65533506 132.928663,6.1313303 133.61,6.738 C134.291337,7.3446697 134.832665,8.05866256 135.234,8.88 C135.635335,9.70133744 135.882666,10.578662 135.976,11.512 L132.084,11.512 C131.822665,10.4479947 131.31867,9.62200294 130.572,9.034 C129.82533,8.44599706 128.985338,8.152 128.052,8.152 C126.427992,8.152 125.233337,8.7353275 124.468,9.902 C123.702663,11.0686725 123.32,12.6693232 123.32,14.704 C123.32,16.7760104 123.697996,18.3859943 124.454,19.534 C125.210004,20.6820057 126.343992,21.256 127.856,21.256 C129.013339,21.256 129.941997,20.9433365 130.642,20.318 C131.342004,19.6926635 131.822665,18.7920059 132.084,17.616 L135.976,17.616 Z M145.328,21.312 C146.01867,21.312 146.671997,21.1860013 147.288,20.934 C147.904003,20.6819987 148.440664,20.2993359 148.898,19.786 C149.355336,19.2726641 149.714665,18.6146707 149.976,17.812 C150.237335,17.0093293 150.368,16.0573388 150.368,14.956 C150.368,12.7533223 149.938671,11.0826724 149.08,9.944 C148.221329,8.80532764 146.970675,8.236 145.328,8.236 C143.685325,8.236 142.425338,8.80532764 141.548,9.944 C140.670662,11.0826724 140.232,12.7533223 140.232,14.956 C140.232,17.1586777 140.675329,18.7686616 141.562,19.786 C142.448671,20.8033384 143.703992,21.312 145.328,21.312 Z M145.328,24.644 C142.453319,24.644 140.246008,23.8040084 138.706,22.124 C137.165992,20.4439916 136.396,18.0266824 136.396,14.872 C136.396,13.3039922 136.591998,11.8946729 136.984,10.644 C137.376002,9.39332708 137.954663,8.33400434 138.72,7.466 C139.485337,6.59799566 140.418661,5.93533562 141.52,5.478 C142.621339,5.02066438 143.890659,4.792 145.328,4.792 C146.746674,4.792 148.011328,5.02066438 149.122,5.478 C150.232672,5.93533562 151.16133,6.60266228 151.908,7.48 C152.65467,8.35733772 153.223998,9.4259937 153.616,10.686 C154.008002,11.9460063 154.204,13.3693254 154.204,14.956 C154.204,18.1666827 153.443341,20.5839919 151.922,22.208 C150.400659,23.8320081 148.202681,24.644 145.328,24.644 Z M162.856,14.088 C163.976006,14.088 164.783331,13.8313359 165.278,13.318 C165.772669,12.8046641 166.02,12.1373374 166.02,11.316 C166.02,10.5319961 165.772669,9.88800252 165.278,9.384 C164.783331,8.87999748 163.976006,8.628 162.856,8.628 L159.16,8.628 L159.16,14.088 L162.856,14.088 Z M155.268,24 L155.268,5.408 L163.472,5.408 C164.386671,5.408 165.207996,5.56199846 165.936,5.87 C166.664004,6.17800154 167.289331,6.60733058 167.812,7.158 C168.334669,7.70866942 168.735999,8.34799636 169.016,9.076 C169.296001,9.80400364 169.436,10.5879958 169.436,11.428 C169.436,12.2680042 169.296001,13.0473297 169.016,13.766 C168.735999,14.4846703 168.334669,15.1006641 167.812,15.614 C167.289331,16.1273359 166.664004,16.5286652 165.936,16.818 C165.207996,17.1073348 164.386671,17.252 163.472,17.252 L159.16,17.252 L159.16,24 L155.268,24 Z" id="Sm@rtCOP" fill="#414043"></path>
            </g>
        </g>
    </g>
</svg>