<?xml version="1.0" encoding="UTF-8"?>
<svg width="216px" height="54px" viewBox="0 0 216 54" version="1.1" xmlns="http://www.w3.org/2000/svg" xmlns:xlink="http://www.w3.org/1999/xlink">
    <!-- Generator: Sketch 49.1 (51147) - http://www.bohemiancoding.com/sketch -->
    <title>logo&amp;text2）_slice</title>
    <desc>Created with Sketch.</desc>
    <defs>
        <polygon id="path-1" points="0 0 54 0 54 54 0 54"></polygon>
    </defs>
    <g id="Page-1" stroke="none" stroke-width="1" fill="none" fill-rule="evenodd">
        <g id="Artboard" transform="translate(-2.000000, -28.000000)">
            <g id="logo（&amp;text2）" transform="translate(2.000000, 28.000000)">
                <g id="logo">
                    <mask id="mask-2" fill="white">
                        <use xlink:href="#path-1"></use>
                    </mask>
                    <g id="Mask"></g>
                    <path d="M15,45.9997356 C7.3080299,45.9529511 1.08695652,39.7029803 1.08695652,32 C1.08695652,24.2970197 7.3080299,18.0470489 15,18.0002644 L34.3478261,18 L34.3478261,18.0065977 C39.1571887,18.1893552 43,22.1459093 43,27 C43,31.3482629 39.9163515,34.9763012 35.8165846,35.8165846 L46,46 L37,46 L28.1208358,37.1208358 L26,35 L15,35 C13.3431458,35 12,33.6568542 12,32 C12,30.3431458 13.3431458,29 15,29 L29,29 L34,29 C35.1045695,29 36,28.1045695 36,27 C36,25.8954305 35.1045695,25 34,25 L15,25 C11.154015,25.0235245 8.04347826,28.1485098 8.04347826,32 C8.04347826,35.8514902 11.154015,38.9764755 15,38.9998678 L24,39 L25.8969351,40.8969351 L26.4347826,41.4347826 L31,46 L15,46 Z M19.0235219,15.4347826 C22.4601557,10.6929428 28.0438086,7.60869565 34.3478261,7.60869565 C44.7932116,7.60869565 53.2608696,16.0763536 53.2608696,26.5217391 C53.2608696,32.7201915 50.2790531,38.2222034 45.6715975,41.6715975 L40.8289314,36.8289314 C44.2492588,34.6737223 46.5217391,30.8631138 46.5217391,26.5217391 C46.5217391,19.7982726 41.0712926,14.3478261 34.3478261,14.3478261 C32.5519747,14.3478261 30.846945,14.7366799 29.3123419,15.4347826 L19.0235219,15.4347826 Z" id="Combined-Shape" fill="#0084FF" mask="url(#mask-2)"></path>
                </g>
                <path d="M69.0695652,17.0695652 C71.9913043,17.0695652 74.2869565,17.6608696 75.9217391,18.8782609 C77.6608696,20.1652174 78.6695652,22.1826087 78.9130435,24.8956522 L74.8782609,24.8956522 C74.5304348,23.3652174 73.8695652,22.2521739 72.9652174,21.5913043 C72.0608696,20.8956522 70.6695652,20.5826087 68.8608696,20.5826087 C67.2956522,20.5826087 66.1130435,20.7913043 65.2782609,21.2434783 C64.2347826,21.7652174 63.7478261,22.6347826 63.7478261,23.8173913 C63.7478261,24.8608696 64.3043478,25.7304348 65.4869565,26.3565217 C66.0086957,26.6347826 67.4347826,27.1565217 69.7304348,27.8869565 C73.1043478,28.9304348 75.2608696,29.7652174 76.2347826,30.3217391 C78.3913043,31.6086957 79.4695652,33.3826087 79.4695652,35.6782609 C79.4695652,37.9043478 78.6,39.6782609 76.8608696,40.9652174 C75.1217391,42.2173913 72.6521739,42.8782609 69.4869565,42.8782609 C66.426087,42.8782609 64.026087,42.2869565 62.3217391,41.1043478 C60.2347826,39.6434783 59.0869565,37.3478261 58.9130435,34.1826087 L62.9478261,34.1826087 C63.226087,36.0608696 63.8869565,37.4173913 64.9652174,38.2173913 C65.9391304,38.9130435 67.4347826,39.2956522 69.4869565,39.2956522 C71.2956522,39.2956522 72.7565217,38.9826087 73.8,38.3913043 C74.8434783,37.7652174 75.4,36.9652174 75.4,35.9217391 C75.4,34.6 74.6,33.5565217 73.0695652,32.7913043 C72.5826087,32.5478261 70.9826087,31.9913043 68.2347826,31.1565217 C65.173913,30.1826087 63.2608696,29.4869565 62.5304348,29.0695652 C60.6173913,27.9217391 59.6782609,26.2521739 59.6782609,24.0608696 C59.6782609,21.8695652 60.5826087,20.1304348 62.4608696,18.8782609 C64.2,17.6608696 66.3913043,17.0695652 69.0695652,17.0695652 Z M91.4347826,23.9217391 C94.0782609,23.9217391 95.9565217,24.8956522 97.1043478,26.8434783 C97.9391304,25.7304348 98.8086957,24.9652174 99.7130435,24.5478261 C100.513043,24.1304348 101.521739,23.9217391 102.73913,23.9217391 C104.582609,23.9217391 106.113043,24.5130435 107.365217,25.7652174 C108.547826,27.0173913 109.173913,28.6173913 109.173913,30.6 L109.173913,42.3913043 L105.208696,42.3913043 L105.208696,31.2956522 C105.208696,29.8695652 104.895652,28.826087 104.304348,28.2 C103.678261,27.5391304 102.704348,27.226087 101.313043,27.226087 C100.33913,27.226087 99.5391304,27.573913 98.8782609,28.3391304 C98.1826087,29.0695652 97.8695652,30.0782609 97.8695652,31.4 L97.8695652,42.3913043 L93.9043478,42.3913043 L93.9043478,31.3304348 C93.9043478,28.5826087 92.7217391,27.226087 90.3565217,27.226087 C89.2086957,27.226087 88.3043478,27.6434783 87.6086957,28.5478261 C86.9130435,29.3826087 86.5652174,30.426087 86.5652174,31.6086957 L86.5652174,42.3913043 L82.6,42.3913043 L82.6,24.4086957 L86.5652174,24.4086957 L86.5652174,26.2521739 C88.0608696,24.6869565 89.6956522,23.9217391 91.4347826,23.9217391 Z M126.808696,17.0695652 C130.565217,17.0695652 133.521739,18.1826087 135.678261,20.4434783 C137.521739,22.3913043 138.46087,24.7913043 138.46087,27.6434783 C138.46087,30.0782609 137.66087,32.3391304 136.130435,34.426087 C134.565217,36.4782609 132.791304,37.5217391 130.773913,37.5217391 C129.313043,37.5217391 128.478261,36.7913043 128.234783,35.3652174 C127.226087,36.826087 125.869565,37.5565217 124.2,37.5565217 C122.634783,37.5565217 121.382609,37.0347826 120.408696,35.9913043 C119.434783,34.9478261 118.947826,33.626087 118.947826,32.0608696 C118.947826,29.626087 119.678261,27.5043478 121.208696,25.626087 C122.704348,23.7130435 124.513043,22.773913 126.6,22.773913 C128.095652,22.773913 129.13913,23.573913 129.765217,25.173913 L130.252174,23.4347826 L133.347826,23.4347826 L130.982609,31.9217391 C130.634783,33.173913 130.46087,33.9391304 130.46087,34.2521739 C130.46087,34.7043478 130.704348,34.9478261 131.226087,34.9478261 C132.2,34.9478261 133.173913,34.2869565 134.147826,33.0347826 C135.26087,31.573913 135.817391,29.7652174 135.817391,27.6782609 C135.817391,25.5217391 135.052174,23.6782609 133.521739,22.1826087 C131.817391,20.5130435 129.521739,19.7130435 126.6,19.7130435 C123.469565,19.7130435 121,20.6869565 119.121739,22.6695652 C117.243478,24.6173913 116.33913,27.1565217 116.33913,30.2521739 C116.33913,33.6608696 117.313043,36.2695652 119.295652,38.0086957 C121.104348,39.6086957 123.713043,40.4086957 127.086957,40.4086957 C129.347826,40.4086957 131.26087,40.026087 132.86087,39.3304348 C134.321739,38.6347826 135.469565,37.6956522 136.373913,36.4434783 L139.643478,36.4434783 C138.426087,38.6347826 136.617391,40.3043478 134.252174,41.4173913 C132.095652,42.3913043 129.730435,42.8782609 127.086957,42.8782609 C122.634783,42.8782609 119.156522,41.7304348 116.686957,39.4347826 C114.217391,37.1391304 113,34.0086957 113,30.1130435 C113,26.4956522 114.182609,23.4695652 116.582609,21.0347826 C119.156522,18.3913043 122.565217,17.0695652 126.808696,17.0695652 Z M127.226087,25.8 C125.904348,25.8 124.756522,26.4608696 123.782609,27.7826087 C122.808696,29.1043478 122.321739,30.5652174 122.321739,32.2 C122.321739,33.0347826 122.495652,33.6608696 122.843478,34.0782609 C123.191304,34.5304348 123.713043,34.773913 124.478261,34.773913 C125.13913,34.773913 125.8,34.5304348 126.426087,34.0434783 C127.121739,33.4869565 127.608696,32.7565217 127.886957,31.8869565 L128.582609,29.3826087 C128.86087,28.373913 129,27.7478261 129,27.5391304 C129,27.0173913 128.791304,26.6 128.443478,26.2869565 C128.095652,25.9391304 127.678261,25.8 127.226087,25.8 Z M151.956522,23.9217391 C152.826087,23.9217391 153.591304,24.0608696 154.217391,24.373913 L154.217391,28.3391304 C153.313043,28.0608696 152.478261,27.9565217 151.643478,27.9565217 C150.6,27.9565217 149.66087,28.3391304 148.826087,29.173913 C147.852174,30.1130435 147.4,31.3304348 147.4,32.8608696 L147.4,42.3913043 L143.469565,42.3913043 L143.469565,24.4086957 L147.4,24.4086957 L147.4,26.9826087 C147.886957,26.0782609 148.443478,25.3826087 149.104348,24.8956522 C149.904348,24.2347826 150.843478,23.9217391 151.956522,23.9217391 Z M162.113043,18.6 L162.113043,24.4086957 L166.113043,24.4086957 L166.113043,27.6782609 L162.113043,27.6782609 L162.113043,37.8347826 C162.113043,38.2521739 162.182609,38.5652174 162.391304,38.8086957 C162.6,39.0173913 162.878261,39.1217391 163.295652,39.1217391 L165.66087,39.1217391 L165.66087,42.3913043 L162.634783,42.3913043 C161.069565,42.3913043 159.921739,41.973913 159.191304,41.1391304 C158.495652,40.373913 158.147826,39.2956522 158.147826,37.8347826 L158.147826,27.6782609 L154.913043,27.6782609 L154.913043,24.4086957 L158.147826,24.4086957 L158.147826,20.2347826 L162.113043,18.6 Z M180.2,17.0695652 C183.121739,17.0695652 185.556522,17.8347826 187.434783,19.3652174 C189.243478,20.826087 190.321739,22.8434783 190.704348,25.3478261 L186.73913,25.3478261 C186.321739,23.7130435 185.556522,22.5304348 184.408696,21.7652174 C183.295652,21 181.869565,20.6521739 180.130435,20.6521739 C177.521739,20.6521739 175.573913,21.5217391 174.252174,23.3304348 C173.034783,24.9304348 172.443478,27.1565217 172.443478,30.0086957 C172.443478,32.9304348 173.034783,35.1913043 174.217391,36.7565217 C175.504348,38.426087 177.521739,39.2956522 180.234783,39.2956522 C182.008696,39.2956522 183.469565,38.8434783 184.582609,38.0086957 C185.765217,37.0695652 186.6,35.6434783 187.086957,33.7652174 L191.052174,33.7652174 C190.495652,36.6869565 189.208696,38.9478261 187.156522,40.5826087 C185.243478,42.1130435 182.947826,42.8782609 180.269565,42.8782609 C176.130435,42.8782609 173.034783,41.5565217 171.017391,38.9826087 C169.243478,36.7565217 168.373913,33.7652174 168.373913,30.0086957 C168.373913,26.3217391 169.278261,23.2956522 171.121739,21 C173.208696,18.3565217 176.234783,17.0695652 180.2,17.0695652 Z M194.878261,17.5565217 L205.93913,17.5565217 C208.478261,17.5565217 210.495652,18.1130435 211.956522,19.2608696 C213.486957,20.5130435 214.286957,22.3217391 214.286957,24.6869565 C214.286957,25.973913 213.93913,27.1217391 213.243478,28.1304348 C212.478261,29.2434783 211.4,29.973913 210.078261,30.3217391 L210.078261,30.3913043 C212.234783,30.8782609 213.452174,32.3043478 213.730435,34.7391304 L214.147826,38.7391304 C214.286957,40.2695652 214.808696,41.4869565 215.643478,42.3913043 L211.226087,42.3913043 C210.634783,41.626087 210.286957,40.5478261 210.147826,39.1565217 L209.834783,36.0956522 C209.695652,34.7391304 209.278261,33.7652174 208.582609,33.173913 C207.852174,32.5478261 206.773913,32.2695652 205.382609,32.2695652 L198.947826,32.2695652 L198.947826,42.3913043 L194.878261,42.3913043 L194.878261,17.5565217 Z M198.947826,21.0347826 L198.947826,28.7913043 L205.382609,28.7913043 C206.982609,28.7913043 208.2,28.4434783 209.034783,27.7826087 C209.8,27.0869565 210.182609,26.1130435 210.182609,24.8608696 C210.182609,23.5043478 209.8,22.5304348 209.034783,21.9391304 C208.269565,21.3130435 207.052174,21.0347826 205.382609,21.0347826 L198.947826,21.0347826 Z" id="Sm@rtCR" fill="#1C2327"></path>
            </g>
        </g>
    </g>
</svg>