<?xml version="1.0" encoding="UTF-8"?>
<svg width="160px" height="28px" viewBox="0 0 160 28" version="1.1" xmlns="http://www.w3.org/2000/svg" xmlns:xlink="http://www.w3.org/1999/xlink">
    <!-- Generator: Sketch 49.1 (51147) - http://www.bohemiancoding.com/sketch -->
    <title>logo_cd__b_slice</title>
    <desc>Created with Sketch.</desc>
    <defs>
        <rect id="path-1" x="0" y="0" width="160" height="28"></rect>
        <linearGradient x1="0%" y1="0%" x2="100%" y2="100%" id="linearGradient-3">
            <stop stop-color="#4DB4FF" offset="0%"></stop>
            <stop stop-color="#188FFF" offset="100%"></stop>
        </linearGradient>
    </defs>
    <g id="icns" stroke="none" stroke-width="1" fill="none" fill-rule="evenodd">
        <g id="Artboard" transform="translate(-720.000000, -458.000000)">
            <g id="logo_CD--b" transform="translate(720.000000, 458.000000)">
                <mask id="mask-2" fill="white">
                    <use xlink:href="#path-1"></use>
                </mask>
                <g id="Mask"></g>
                <g id="Group" mask="url(#mask-2)">
                    <path d="M30.5956565,8.66806055 L26.7681864,8.66806055 C25.3358971,5.22362221 23.0270894,3.50140304 19.8417632,3.50140304 C15.0637739,3.50140304 12.4232582,7.23735777 12.4232582,11.1515275 C15.4180526,11.1514278 16.9184084,11.1514278 16.9243255,11.1515275 L14.4820545,14.7897738 C12.540766,14.7897738 10.6150707,14.7897738 8.70496854,14.7897738 C5.83981532,14.7897738 3.77782846,16.6545449 3.77782846,18.9682742 C3.77782846,21.2820035 4.92017051,23.4754531 8.70496854,23.4754531 L13.2407696,23.4754531 L21.134203,11.1515275 C24.750824,11.1515275 27.5918043,11.1515275 29.6571439,11.1515275 C32.7551534,11.1515275 37.1017901,14.2665311 37.1017901,18.9682742 C37.1017901,23.6700174 33.3655442,27.1891862 29.6571439,27.1891862 C27.1848771,27.1891862 23.8936423,27.1891862 19.7834393,27.1891862 L22.1013423,23.4754531 C26.1496283,23.4754531 28.6614111,23.4754531 29.6366907,23.4754531 C31.09961,23.4754531 33.3971701,21.7151093 33.3971701,18.9682742 C33.3971701,16.2214392 30.8740168,14.8558437 29.6571439,14.8558437 C28.8458954,14.8558437 26.7414645,14.8558437 23.3438514,14.8558437 L15.7145988,27.1891862 C13.697725,27.1891862 11.3611816,27.1891862 8.70496854,27.1891862 C4.720649,27.1891862 4.52541556e-16,24.384278 0,18.9682742 C0,13.5522705 5.15041393,11.153528 8.70496854,11.1214542 C8.72834839,7.80601205 11.9849818,7.05109986e-16 19.8417632,0 C25.0796175,0 28.6642486,2.88935352 30.5956565,8.66806055 Z" id="Path-6-Copy-3" fill="url(#linearGradient-3)"></path>
                    <path d="M56.172,10.896 C56.0786662,9.94399524 55.7333363,9.234669 55.136,8.768 C54.5386637,8.301331 53.6426726,8.068 52.448,8.068 C50.2453223,8.068 49.144,8.82399244 49.144,10.336 C49.144,10.877336 49.3726644,11.3299982 49.83,11.694 C50.2873356,12.0580018 51.019995,12.3613321 52.028,12.604 C53.2226726,12.8840014 54.2586623,13.1453321 55.136,13.388 C56.0133377,13.6306679 56.8159964,13.9106651 57.544,14.228 C57.9546687,14.3960008 58.3419982,14.6059987 58.706,14.858 C59.0700018,15.1100013 59.3779987,15.4226648 59.63,15.796 C59.8820013,16.1693352 60.0826659,16.6173307 60.232,17.14 C60.3813341,17.6626693 60.456,18.2973296 60.456,19.044 C60.456,19.9400045 60.2693352,20.7333299 59.896,21.424 C59.5226648,22.1146701 59.0186698,22.6979976 58.384,23.174 C57.7493302,23.6500024 57.002671,24.0139987 56.144,24.266 C55.285329,24.5180013 54.3800048,24.644 53.428,24.644 C50.7213198,24.644 48.6866735,24.1213386 47.324,23.076 C45.9613265,22.0306614 45.242667,20.4813436 45.168,18.428 L48.92,18.428 C48.9386668,19.3800048 49.3259962,20.1313306 50.082,20.682 C50.8380038,21.2326694 51.7853276,21.508 52.924,21.508 C54.1560062,21.508 55.0893302,21.2840022 55.724,20.836 C56.3586698,20.3879978 56.676,19.7813372 56.676,19.016 C56.676,18.7173318 56.638667,18.4420013 56.564,18.19 C56.489333,17.9379987 56.3446677,17.7093344 56.13,17.504 C55.9153323,17.2986656 55.6213352,17.1166675 55.248,16.958 C54.8746648,16.7993325 54.3893363,16.6546673 53.792,16.524 C52.3733262,16.2253318 51.1460052,15.9220015 50.11,15.614 C49.0739948,15.3059985 48.2200034,14.9233356 47.548,14.466 C46.8759966,14.0086644 46.3813349,13.4533366 46.064,12.8 C45.7466651,12.1466634 45.588,11.316005 45.588,10.308 C45.588,9.54266284 45.7279986,8.82400336 46.008,8.152 C46.2880014,7.47999664 46.7173304,6.89666914 47.296,6.402 C47.8746696,5.90733086 48.5886624,5.51533478 49.438,5.226 C50.2873376,4.93666522 51.2906609,4.792 52.448,4.792 C53.5680056,4.792 54.5759955,4.93666522 55.472,5.226 C56.3680045,5.51533478 57.1379968,5.92599734 57.782,6.458 C58.4260032,6.99000266 58.9253316,7.63399622 59.28,8.39 C59.6346684,9.14600378 59.8306665,9.98132876 59.868,10.896 L56.172,10.896 Z M77.508,24 L77.508,15.656 C77.508,14.8159958 77.312002,14.1346693 76.92,13.612 C76.527998,13.0893307 76.0053366,12.828 75.352,12.828 C74.6799966,12.828 74.1246689,13.1079972 73.686,13.668 C73.2473311,14.2280028 73.028,14.9279958 73.028,15.768 L73.028,24 L69.388,24 L69.388,15.712 C69.388,15.1519972 69.350667,14.6946684 69.276,14.34 C69.201333,13.9853316 69.0753342,13.7053344 68.898,13.5 C68.7206658,13.2946656 68.4920014,13.1500004 68.212,13.066 C67.9319986,12.9819996 67.596002,12.94 67.204,12.94 C65.729326,12.94 64.992,13.835991 64.992,15.628 L64.992,24 L61.352,24 L61.352,10.224 L64.768,10.224 L64.768,12.24 C65.234669,11.3253288 65.7946634,10.7000017 66.448,10.364 C67.1013366,10.0279983 67.8853288,9.86 68.8,9.86 C69.266669,9.86 69.6819982,9.89733296 70.046,9.972 C70.4100018,10.046667 70.7366652,10.1726658 71.026,10.35 C71.3153348,10.5273342 71.5906654,10.7559986 71.852,11.036 C72.1133346,11.3160014 72.3746654,11.651998 72.636,12.044 C73.0093352,11.2786628 73.5039969,10.7233351 74.12,10.378 C74.7360031,10.0326649 75.4826623,9.86 76.36,9.86 C77.0506701,9.86 77.6853304,9.9766655 78.264,10.21 C78.8426696,10.4433345 79.3373313,10.7699979 79.748,11.19 C80.1586687,11.6100021 80.4806655,12.0999972 80.714,12.66 C80.9473345,13.2200028 81.064,13.8173302 81.064,14.452 L81.064,24 L77.508,24 Z M91.2,19.688 C92.0400042,19.688 92.7119975,19.2866707 93.216,18.484 C93.7200025,17.6813293 93.972,16.6546729 93.972,15.404 C93.972,14.6386628 93.8086683,14.0506687 93.482,13.64 C93.1553317,13.2293313 92.6746698,13.024 92.04,13.024 C91.2186626,13.024 90.5233362,13.3599966 89.954,14.032 C89.3846638,14.7040034 89.1,15.7866592 89.1,17.28 C89.1,18.0640039 89.2539985,18.6613313 89.562,19.072 C89.8700015,19.4826687 90.4159961,19.688 91.2,19.688 Z M99.88,24.42 C99.338664,24.886669 98.4240064,25.3206647 97.136,25.722 C95.8479936,26.1233353 94.1306774,26.324 91.984,26.324 C90.3786586,26.324 88.9693394,26.0860024 87.756,25.61 C86.5426606,25.1339976 85.5253374,24.4713376 84.704,23.622 C83.8826626,22.7726624 83.2620021,21.7553393 82.842,20.57 C82.4219979,19.3846607 82.212,18.092007 82.212,16.692 C82.212,15.217326 82.4359978,13.8546729 82.884,12.604 C83.3320022,11.3533271 83.9806624,10.2753379 84.83,9.37 C85.6793376,8.46466214 86.7153272,7.7553359 87.938,7.242 C89.1606728,6.7286641 90.5466589,6.472 92.096,6.472 C93.3280062,6.472 94.4946612,6.62133184 95.596,6.92 C96.6973388,7.21866816 97.6633292,7.6946634 98.494,8.348 C99.3246708,9.0013366 99.9826642,9.8413282 100.468,10.868 C100.953336,11.8946718 101.196,13.1266595 101.196,14.564 C101.196,15.7773394 101.046668,16.8459954 100.748,17.77 C100.449332,18.6940046 100.066669,19.4686635 99.6,20.094 C99.133331,20.7193365 98.6106696,21.1906651 98.032,21.508 C97.4533304,21.8253349 96.8746696,21.984 96.296,21.984 C95.5119961,21.984 94.9146687,21.8393348 94.504,21.55 C94.0933313,21.2606652 93.8413338,20.9106687 93.748,20.5 C93.4493318,21.0040025 93.0433359,21.3633323 92.53,21.578 C92.0166641,21.7926677 91.4333366,21.9 90.78,21.9 C90.0519964,21.9 89.4313359,21.7693346 88.918,21.508 C88.4046641,21.2466654 87.9846683,20.9013355 87.658,20.472 C87.3313317,20.0426645 87.0933341,19.5526694 86.944,19.002 C86.7946659,18.4513306 86.72,17.8773363 86.72,17.28 C86.72,16.3839955 86.8413321,15.5486705 87.084,14.774 C87.3266679,13.9993295 87.6766644,13.3320028 88.134,12.772 C88.5913356,12.2119972 89.1419968,11.7686683 89.786,11.442 C90.4300032,11.1153317 91.1533293,10.952 91.956,10.952 C92.6093366,10.952 93.1786642,11.0966652 93.664,11.386 C94.1493358,11.6753348 94.4946656,12.1186637 94.7,12.716 L95.064,11.232 L97.248,11.232 L95.792,18.148 C95.6799994,18.6520025 95.624,18.9879992 95.624,19.156 C95.624,19.3426676 95.6939993,19.4779996 95.834,19.562 C95.9740007,19.6460004 96.1186659,19.688 96.268,19.688 C96.5853349,19.688 96.9119983,19.5853344 97.248,19.38 C97.5840017,19.1746656 97.8919986,18.8713353 98.172,18.47 C98.4520014,18.0686647 98.6806658,17.5646697 98.858,16.958 C99.0353342,16.3513303 99.124,15.6466707 99.124,14.844 C99.124,13.6866609 98.9606683,12.6973374 98.634,11.876 C98.3073317,11.0546626 97.8360031,10.3873359 97.22,9.874 C96.6039969,9.3606641 95.8620043,8.98266788 94.994,8.74 C94.1259957,8.49733212 93.1506721,8.376 92.068,8.376 C90.8173271,8.376 89.7113381,8.61399762 88.75,9.09 C87.7886619,9.56600238 86.9860032,10.1866628 86.342,10.952 C85.6979968,11.7173372 85.2080017,12.5899951 84.872,13.57 C84.5359983,14.5500049 84.368,15.543995 84.368,16.552 C84.368,19.0533458 85.0493265,20.9573268 86.412,22.264 C87.7746735,23.5706732 89.6879877,24.224 92.152,24.224 C93.7946749,24.224 95.2039941,24.0933346 96.38,23.832 C97.5560059,23.5706654 98.4333304,23.2253355 99.012,22.796 L99.88,24.42 Z M102.344,24 L102.344,10.224 L105.76,10.224 L105.76,11.876 C106.058668,11.409331 106.371332,11.0453346 106.698,10.784 C107.024668,10.5226654 107.360665,10.3220007 107.706,10.182 C108.051335,10.0419993 108.401332,9.95333352 108.756,9.916 C109.110668,9.87866648 109.474665,9.86 109.848,9.86 L110.324,9.86 L110.324,13.584 C109.987998,13.5279997 109.652002,13.5 109.316,13.5 C107.094656,13.5 105.984,14.6106556 105.984,16.832 L105.984,24 L102.344,24 Z M118.976,14.928 L122.364,14.928 L122.364,18.848 C122.364,19.5760036 122.256668,20.27133 122.042,20.934 C121.827332,21.59667 121.491336,22.1846641 121.034,22.698 C120.576664,23.2113359 119.998004,23.6173318 119.298,23.916 C118.597997,24.2146682 117.762672,24.364 116.792,24.364 C115.783995,24.364 114.925337,24.2146682 114.216,23.916 C113.506663,23.6173318 112.923336,23.2160025 112.466,22.712 C112.008664,22.2079975 111.677334,21.6200034 111.472,20.948 C111.266666,20.2759966 111.164,19.5666704 111.164,18.82 L111.164,6.5 L114.748,6.5 L114.748,10.224 L122.364,10.224 L122.364,12.8 L114.748,12.8 L114.748,18.456 C114.748,19.3333377 114.911332,20.0099976 115.238,20.486 C115.564668,20.9620024 116.10133,21.2 116.848,21.2 C117.576004,21.2 118.112665,20.966669 118.458,20.5 C118.803335,20.033331 118.976,19.370671 118.976,18.512 L118.976,14.928 Z M139.976,17.616 C139.770666,18.6800053 139.444002,19.641329 138.996,20.5 C138.547998,21.358671 137.983337,22.0959969 137.302,22.712 C136.620663,23.3280031 135.832004,23.8039983 134.936,24.14 C134.039996,24.4760017 133.050672,24.644 131.968,24.644 C130.754661,24.644 129.620672,24.4386687 128.566,24.028 C127.511328,23.6173313 126.601337,23.0013374 125.836,22.18 C125.070663,21.3586626 124.468669,20.346006 124.03,19.142 C123.591331,17.937994 123.372,16.5333414 123.372,14.928 C123.372,13.3599922 123.572665,11.9460063 123.974,10.686 C124.375335,9.4259937 124.94933,8.36200434 125.696,7.494 C126.44267,6.62599566 127.352661,5.958669 128.426,5.492 C129.499339,5.025331 130.69866,4.792 132.024,4.792 C133.181339,4.792 134.231329,4.96466494 135.174,5.31 C136.116671,5.65533506 136.928663,6.1313303 137.61,6.738 C138.291337,7.3446697 138.832665,8.05866256 139.234,8.88 C139.635335,9.70133744 139.882666,10.578662 139.976,11.512 L136.084,11.512 C135.822665,10.4479947 135.31867,9.62200294 134.572,9.034 C133.82533,8.44599706 132.985338,8.152 132.052,8.152 C130.427992,8.152 129.233337,8.7353275 128.468,9.902 C127.702663,11.0686725 127.32,12.6693232 127.32,14.704 C127.32,16.7760104 127.697996,18.3859943 128.454,19.534 C129.210004,20.6820057 130.343992,21.256 131.856,21.256 C133.013339,21.256 133.941997,20.9433365 134.642,20.318 C135.342004,19.6926635 135.822665,18.7920059 136.084,17.616 L139.976,17.616 Z M147.62,20.836 C149.318675,20.836 150.550663,20.3086719 151.316,19.254 C152.081337,18.1993281 152.464,16.6173439 152.464,14.508 C152.464,13.4626614 152.370668,12.5666704 152.184,11.82 C151.997332,11.0733296 151.694002,10.4620024 151.274,9.986 C150.853998,9.50999762 150.317337,9.16466774 149.664,8.95 C149.010663,8.73533226 148.217338,8.628 147.284,8.628 L144.4,8.628 L144.4,20.836 L147.62,20.836 Z M140.62,24 L140.62,5.408 L147.816,5.408 C149.066673,5.408 150.223995,5.6179979 151.288,6.038 C152.352005,6.4580021 153.261996,7.05999608 154.018,7.844 C154.774004,8.62800392 155.366665,9.5799944 155.796,10.7 C156.225335,11.8200056 156.44,13.0893262 156.44,14.508 C156.44,15.9266738 156.248669,17.2193275 155.866,18.386 C155.483331,19.5526725 154.937337,20.5513292 154.228,21.382 C153.518663,22.2126708 152.669338,22.8566644 151.68,23.314 C150.690662,23.7713356 149.598673,24 148.404,24 L140.62,24 Z" id="Sm@rtCD" fill="#414043"></path>
                </g>
            </g>
        </g>
    </g>
</svg>